#!OML:ASF H:\Terrain\Walking\May29\JustinRory\Justin.ASF
:FULLY-SPECIFIED
:DEGREES
167
root 11.2557 17.0643 8.6131 -341.225 -63.9331 348.532
lowerback 16.2412 -7.10099 -4.85123
upperback 2.9591 -10.0545 5.28933
thorax -3.99377 -5.02579 10.2463
lowerneck 7.02899 -20.188 -20.395
upperneck -2.15049 -29.4151 26.304
head 5.34123 -15.1116 8.77893
rclavicle -4.03533e-014 6.44062e-014
rhumerus -30.9926 -37.2297 -6.07865
rradius 33.7075
rwrist -55.8259
rhand -8.50131 -3.4805
rfingers 7.12502
rthumb 17.4264 -32.7194
lclavicle -4.03533e-014 6.44062e-014
lhumerus 11.2559 14.5708 60.3806
lradius 43.6685
lwrist -6.54381
lhand -4.20205 41.9821
lfingers 7.12502
lthumb 21.5599 70.8021
rfemur -12.3731 -6.54683 9.61229
rtibia 36.958
rfoot -16.3432 -7.39288
rtoes -30.6256
lfemur -35.1452 17.8866 -11.0094
ltibia 70.356
lfoot -13.3614 -5.26751
ltoes -13.2411
168
root 11.2409 17.0358 8.67127 -340.099 -63.4789 347.622
lowerback 16.1296 -7.01733 -4.06772
upperback 2.94361 -9.80369 5.31011
thorax -4.13177 -4.89665 9.78565
lowerneck 7.02197 -20.407 -19.9402
upperneck -2.31765 -29.6364 26.2215
head 5.25718 -15.2273 8.66417
rclavicle -1.15693e-013 2.3059e-014
rhumerus -31.4607 -38.1377 -5.0376
rradius 32.6904
rwrist -55.4718
rhand -9.2336 -3.80609
rfingers 7.12502
rthumb 16.7216 -33.1059
lclavicle -1.15693e-013 2.3059e-014
lhumerus 10.9974 17.3342 59.3836
lradius 42.3072
lwrist -6.7729
lhand -4.38686 43.4904
lfingers 7.12502
lthumb 21.3824 72.3306
rfemur -12.0711 -7.32565 10.0647
rtibia 36.1401
rfoot -16.5176 -7.31379
rtoes -29.6177
lfemur -36.1598 17.967 -9.86679
ltibia 70.2057
lfoot -14.0085 -1.6013
ltoes -7.81651
169
root 11.2293 17.0172 8.73429 -338.913 -63.1136 346.542
lowerback 16.1859 -6.82136 -3.13509
upperback 2.95057 -9.38246 5.35009
thorax -4.37918 -4.68111 9.26303
lowerneck 6.84049 -20.757 -19.5667
upperneck -2.33738 -30.0348 26.0512
head 5.27832 -15.4071 8.46511
rclavicle 5.56597e-014 -3.97569e-014
rhumerus -32.3377 -39.266 -3.4556
rradius 31.6234
rwrist -54.9833
rhand -7.91284 -3.96526
rfingers 7.12502
rthumb 17.9927 -33.153
lclavicle 5.56597e-014 -3.97569e-014
lhumerus 10.6451 19.4995 58.2009
lradius 41.1041
lwrist -6.30546
lhand -5.09023 44.8055
lfingers 7.12502
lthumb 20.7067 73.7209
rfemur -11.8248 -8.40947 10.6437
rtibia 35.4655
rfoot -16.8075 -7.34011
rtoes -28.1361
lfemur -36.9268 17.8947 -8.54468
ltibia 69.7553
lfoot -14.5404 1.06232
ltoes -3.32489
170
root 11.2183 16.9914 8.79436 -337.384 -63.0611 344.972
lowerback 16.4965 -6.5521 -2.35212
upperback 2.96597 -8.88541 5.62352
thorax -4.68944 -4.43227 9.09931
lowerneck 6.30987 -20.9343 -19.2991
upperneck -2.41314 -30.0981 25.6084
head 5.22845 -15.3948 8.23854
rclavicle -4.87022e-014 1.11319e-014
rhumerus -32.8609 -40.1364 -2.06797
rradius 30.9402
rwrist -54.8667
rhand -8.98003 -4.54594
rfingers 7.12502
rthumb 16.9657 -33.825
lclavicle -4.87022e-014 1.11319e-014
lhumerus 9.9572 21.9608 57.094
lradius 39.9725
lwrist -5.9802
lhand -5.54247 45.9948
lfingers 7.12502
lthumb 20.2721 74.9569
rfemur -11.7328 -9.1742 11.419
rtibia 35.0374
rfoot -17.2813 -7.80796
rtoes -28.5257
lfemur -37.4073 18.161 -7.03075
ltibia 69.0297
lfoot -15.2576 3.15579
ltoes -4.07078
171
root 11.2099 16.954 8.85127 -335.925 -63.1389 343.48
lowerback 16.7127 -6.32437 -1.66033
upperback 3.08465 -8.46343 5.85731
thorax -4.81085 -4.23392 8.92204
lowerneck 5.52065 -21.0735 -18.8868
upperneck -2.57211 -30.05 25.1342
head 5.14345 -15.3187 7.98971
rclavicle -6.4605e-014 1.59028e-014
rhumerus -33.2406 -41.2102 -0.986752
rradius 30.4973
rwrist -55.0297
rhand -7.55284 -4.06515
rfingers 7.12502
rthumb 18.3391 -33.2207
lclavicle -6.4605e-014 1.59028e-014
lhumerus 8.92845 24.062 55.5456
lradius 39.0896
lwrist -5.32919
lhand -5.7179 47.4398
lfingers 7.12502
lthumb 20.1035 76.4197
rfemur -11.8214 -9.80861 12.1566
rtibia 34.8516
rfoot -17.7177 -8.76505
rtoes -30.9416
lfemur -37.714 18.3069 -5.55653
ltibia 68.0584
lfoot -15.8995 4.29199
ltoes -3.0976
